<svg xmlns="http://www.w3.org/2000/svg" viewBox="0 0 240 240" role="img" aria-labelledby="title desc">
  <title id="title">UPI QR Placeholder</title>
  <desc id="desc">Placeholder QR graphic for Deepfake Detection premium payment. Replace with your real PhonePe or UPI QR image for production.</desc>
  <rect width="240" height="240" fill="#ffffff"/>
  <rect x="16" y="16" width="208" height="208" rx="12" fill="#ffffff" stroke="#0b162d" stroke-width="6"/>
  <rect x="28" y="28" width="42" height="42" fill="#0b162d"/>
  <rect x="34" y="34" width="30" height="30" fill="#ffffff"/>
  <rect x="40" y="40" width="18" height="18" fill="#0b162d"/>
  <rect x="170" y="28" width="42" height="42" fill="#0b162d"/>
  <rect x="176" y="34" width="30" height="30" fill="#ffffff"/>
  <rect x="182" y="40" width="18" height="18" fill="#0b162d"/>
  <rect x="28" y="170" width="42" height="42" fill="#0b162d"/>
  <rect x="34" y="176" width="30" height="30" fill="#ffffff"/>
  <rect x="40" y="182" width="18" height="18" fill="#0b162d"/>
  <g fill="#0b162d">
    <rect x="88" y="30" width="10" height="10"/>
    <rect x="108" y="30" width="10" height="10"/>
    <rect x="128" y="30" width="10" height="10"/>
    <rect x="98" y="50" width="10" height="10"/>
    <rect x="118" y="50" width="10" height="10"/>
    <rect x="88" y="70" width="10" height="10"/>
    <rect x="128" y="70" width="10" height="10"/>
    <rect x="88" y="92" width="10" height="10"/>
    <rect x="108" y="92" width="10" height="10"/>
    <rect x="128" y="92" width="10" height="10"/>
    <rect x="148" y="92" width="10" height="10"/>
    <rect x="168" y="92" width="10" height="10"/>
    <rect x="188" y="92" width="10" height="10"/>
    <rect x="88" y="112" width="10" height="10"/>
    <rect x="108" y="112" width="10" height="10"/>
    <rect x="148" y="112" width="10" height="10"/>
    <rect x="168" y="112" width="10" height="10"/>
    <rect x="188" y="112" width="10" height="10"/>
    <rect x="88" y="132" width="10" height="10"/>
    <rect x="128" y="132" width="10" height="10"/>
    <rect x="148" y="132" width="10" height="10"/>
    <rect x="168" y="132" width="10" height="10"/>
    <rect x="108" y="152" width="10" height="10"/>
    <rect x="128" y="152" width="10" height="10"/>
    <rect x="148" y="152" width="10" height="10"/>
    <rect x="168" y="152" width="10" height="10"/>
    <rect x="188" y="152" width="10" height="10"/>
    <rect x="88" y="172" width="10" height="10"/>
    <rect x="108" y="172" width="10" height="10"/>
    <rect x="128" y="172" width="10" height="10"/>
    <rect x="148" y="172" width="10" height="10"/>
    <rect x="168" y="172" width="10" height="10"/>
    <rect x="188" y="172" width="10" height="10"/>
    <rect x="88" y="192" width="10" height="10"/>
    <rect x="128" y="192" width="10" height="10"/>
    <rect x="168" y="192" width="10" height="10"/>
  </g>
  <text x="120" y="228" text-anchor="middle" font-family="Segoe UI, Arial, sans-serif" font-size="10" fill="#0b162d">Replace with your real UPI QR for production</text>
</svg>